<svg xmlns="http://www.w3.org/2000/svg" xmlns:xlink="http://www.w3.org/1999/xlink" width="156" zoomAndPan="magnify" viewBox="0 0 116.88 116.999995" height="156" preserveAspectRatio="xMidYMid meet" version="1.0"><defs><clipPath id="1c840138b1"><path d="M 32.964844 43.214844 L 53.421875 43.214844 L 53.421875 63.667969 L 32.964844 63.667969 Z M 32.964844 43.214844 " clip-rule="nonzero"/></clipPath><clipPath id="ecf83871fc"><path d="M 32.964844 73.785156 L 83.839844 73.785156 L 83.839844 94.238281 L 32.964844 94.238281 Z M 32.964844 73.785156 " clip-rule="nonzero"/></clipPath><clipPath id="341a14a80a"><path d="M 63.382812 22.53125 L 83.835938 22.53125 L 83.835938 94.234375 L 63.382812 94.234375 Z M 63.382812 22.53125 " clip-rule="nonzero"/></clipPath></defs><g clip-path="url(#1c840138b1)"><path fill="#8750f7" d="M 32.964844 43.214844 L 53.421875 43.214844 L 53.421875 63.667969 L 32.964844 63.667969 Z M 32.964844 43.214844 " fill-opacity="1" fill-rule="nonzero"/></g><g clip-path="url(#ecf83871fc)"><path fill="#8750f7" d="M 32.964844 73.785156 L 83.863281 73.785156 L 83.863281 94.238281 L 32.964844 94.238281 Z M 32.964844 73.785156 " fill-opacity="1" fill-rule="nonzero"/></g><g clip-path="url(#341a14a80a)"><path fill="#8750f7" d="M 63.382812 94.234375 L 63.382812 22.5625 L 83.835938 22.5625 L 83.835938 94.234375 Z M 63.382812 94.234375 " fill-opacity="1" fill-rule="nonzero"/></g></svg>